HIERARCHY
ROOT mixamorig:Hips
{
	OFFSET 0.000000 104.274902 0.000000
	CHANNELS 6 Xposition Yposition Zposition Xrotation Yrotation Zrotation
	JOINT mixamorig:Spine
	{
		OFFSET 0.000000 10.181549 0.131524
		CHANNELS 6 Xposition Yposition Zposition Xrotation Yrotation Zrotation
		JOINT mixamorig:Spine1
		{
			OFFSET 0.000000 9.893990 -1.470706
			CHANNELS 3 Xrotation Yrotation Zrotation
			JOINT mixamorig:Spine2
			{
				OFFSET 0.000000 9.220787 -1.370637
				CHANNELS 3 Xrotation Yrotation Zrotation
				JOINT mixamorig:Neck
				{
					OFFSET 0.000000 16.740372 -2.049022
					CHANNELS 6 Xposition Yposition Zposition Xrotation Yrotation Zrotation
					JOINT mixamorig:Head
					{
						OFFSET 0.000000 9.617859 1.684976
						CHANNELS 6 Xposition Yposition Zposition Xrotation Yrotation Zrotation
						JOINT mixamorig:HeadTop_End
						{
							OFFSET 0.000000 22.037384 7.501072
							CHANNELS 6 Xposition Yposition Zposition Xrotation Yrotation Zrotation
							End Site
							{
								OFFSET 0.000000 23.106567 -2.828246
							}
						}
					}
				}
				JOINT mixamorig:RightShoulder
				{
					OFFSET -4.570000 11.014877 -2.160840
					CHANNELS 6 Xposition Yposition Zposition Xrotation Yrotation Zrotation
					JOINT mixamorig:RightArm
					{
						OFFSET -10.592867 -0.524796 -2.232105
						CHANNELS 3 Xrotation Yrotation Zrotation
						JOINT mixamorig:RightForeArm
						{
							OFFSET -27.841497 0.000000 -0.000002
							CHANNELS 3 Xrotation Yrotation Zrotation
							JOINT mixamorig:RightHand
							{
								OFFSET -28.328812 0.000000 -0.000001
								CHANNELS 3 Xrotation Yrotation Zrotation
								JOINT mixamorig:RightHandThumb1
								{
									OFFSET -2.464798 -1.573990 2.681911
									CHANNELS 6 Xposition Yposition Zposition Xrotation Yrotation Zrotation
									JOINT mixamorig:RightHandThumb2
									{
										OFFSET -3.244781 -1.873383 1.873376
										CHANNELS 3 Xrotation Yrotation Zrotation
										JOINT mixamorig:RightHandThumb3
										{
											OFFSET -2.646263 -1.527817 1.527818
											CHANNELS 6 Xposition Yposition Zposition Xrotation Yrotation Zrotation
											JOINT mixamorig:RightHandThumb4
											{
												OFFSET -1.994591 -1.151581 1.151575
												CHANNELS 6 Xposition Yposition Zposition Xrotation Yrotation Zrotation
												End Site
												{
													OFFSET -1.860176 -1.142715 1.365483
												}
											}
										}
									}
								}
								JOINT mixamorig:RightHandIndex1
								{
									OFFSET -9.108299 -0.517883 2.259803
									CHANNELS 6 Xposition Yposition Zposition Xrotation Yrotation Zrotation
									JOINT mixamorig:RightHandIndex2
									{
										OFFSET -3.699997 0.000000 0.000000
										CHANNELS 3 Xrotation Yrotation Zrotation
										JOINT mixamorig:RightHandIndex3
										{
											OFFSET -2.850006 0.000000 0.000000
											CHANNELS 3 Xrotation Yrotation Zrotation
											JOINT mixamorig:RightHandIndex4
											{
												OFFSET -2.772194 0.000000 0.000000
												CHANNELS 3 Xrotation Yrotation Zrotation
												End Site
												{
													OFFSET -2.772202 0.000000 -0.000484
												}
											}
										}
									}
								}
								JOINT mixamorig:RightHandMiddle1
								{
									OFFSET -9.532501 0.000000 -0.000000
									CHANNELS 6 Xposition Yposition Zposition Xrotation Yrotation Zrotation
									JOINT mixamorig:RightHandMiddle2
									{
										OFFSET -3.699997 0.000000 0.000000
										CHANNELS 3 Xrotation Yrotation Zrotation
										JOINT mixamorig:RightHandMiddle3
										{
											OFFSET -2.949997 0.000000 0.000000
											CHANNELS 3 Xrotation Yrotation Zrotation
											JOINT mixamorig:RightHandMiddle4
											{
												OFFSET -2.946594 0.000000 0.000000
												CHANNELS 3 Xrotation Yrotation Zrotation
												End Site
												{
													OFFSET -2.946602 0.000000 -0.000982
												}
											}
										}
									}
								}
								JOINT mixamorig:RightHandRing1
								{
									OFFSET -9.103600 -0.043106 -1.865100
									CHANNELS 6 Xposition Yposition Zposition Xrotation Yrotation Zrotation
									JOINT mixamorig:RightHandRing2
									{
										OFFSET -3.379303 0.000000 0.000000
										CHANNELS 3 Xrotation Yrotation Zrotation
										JOINT mixamorig:RightHandRing3
										{
											OFFSET -2.889694 0.000000 0.000000
											CHANNELS 3 Xrotation Yrotation Zrotation
											JOINT mixamorig:RightHandRing4
											{
												OFFSET -2.638802 0.000000 0.000000
												CHANNELS 3 Xrotation Yrotation Zrotation
												End Site
												{
													OFFSET -2.638802 0.000000 0.004218
												}
											}
										}
									}
								}
								JOINT mixamorig:RightHandPinky1
								{
									OFFSET -8.076698 -0.486725 -3.806299
									CHANNELS 6 Xposition Yposition Zposition Xrotation Yrotation Zrotation
									JOINT mixamorig:RightHandPinky2
									{
										OFFSET -3.600006 0.000000 0.000000
										CHANNELS 3 Xrotation Yrotation Zrotation
										JOINT mixamorig:RightHandPinky3
										{
											OFFSET -2.099998 0.000000 0.000000
											CHANNELS 3 Xrotation Yrotation Zrotation
											JOINT mixamorig:RightHandPinky4
											{
												OFFSET -2.115791 0.000000 0.000000
												CHANNELS 3 Xrotation Yrotation Zrotation
												End Site
												{
													OFFSET -2.115799 0.000000 0.000174
												}
											}
										}
									}
								}
							}
						}
					}
				}
				JOINT mixamorig:LeftShoulder
				{
					OFFSET 4.570400 11.014679 -2.160816
					CHANNELS 6 Xposition Yposition Zposition Xrotation Yrotation Zrotation
					JOINT mixamorig:LeftArm
					{
						OFFSET 10.592373 -0.524597 -2.232116
						CHANNELS 3 Xrotation Yrotation Zrotation
						JOINT mixamorig:LeftForeArm
						{
							OFFSET 27.841488 0.000000 0.000001
							CHANNELS 3 Xrotation Yrotation Zrotation
							JOINT mixamorig:LeftHand
							{
								OFFSET 28.328808 0.000000 -0.000000
								CHANNELS 3 Xrotation Yrotation Zrotation
								JOINT mixamorig:LeftHandThumb1
								{
									OFFSET 2.466103 -1.576202 2.681698
									CHANNELS 6 Xposition Yposition Zposition Xrotation Yrotation Zrotation
									JOINT mixamorig:LeftHandThumb2
									{
										OFFSET 3.243317 -1.872528 1.872530
										CHANNELS 3 Xrotation Yrotation Zrotation
										JOINT mixamorig:LeftHandThumb3
										{
											OFFSET 2.647881 -1.528763 1.528754
											CHANNELS 6 Xposition Yposition Zposition Xrotation Yrotation Zrotation
											JOINT mixamorig:LeftHandThumb4
											{
												OFFSET 1.998924 -1.154083 1.154080
												CHANNELS 6 Xposition Yposition Zposition Xrotation Yrotation Zrotation
												End Site
												{
													OFFSET 1.884041 -1.149155 1.337651
												}
											}
										}
									}
								}
								JOINT mixamorig:LeftHandIndex1
								{
									OFFSET 9.109299 -0.518005 2.259900
									CHANNELS 6 Xposition Yposition Zposition Xrotation Yrotation Zrotation
									JOINT mixamorig:LeftHandIndex2
									{
										OFFSET 3.699997 0.000000 0.000000
										CHANNELS 3 Xrotation Yrotation Zrotation
										JOINT mixamorig:LeftHandIndex3
										{
											OFFSET 2.850006 0.000000 0.000000
											CHANNELS 3 Xrotation Yrotation Zrotation
											JOINT mixamorig:LeftHandIndex4
											{
												OFFSET 2.774895 0.000000 0.000000
												CHANNELS 3 Xrotation Yrotation Zrotation
												End Site
												{
													OFFSET 2.774902 0.000000 -0.000072
												}
											}
										}
									}
								}
								JOINT mixamorig:LeftHandMiddle1
								{
									OFFSET 9.533401 0.000000 0.000000
									CHANNELS 6 Xposition Yposition Zposition Xrotation Yrotation Zrotation
									JOINT mixamorig:LeftHandMiddle2
									{
										OFFSET 3.699997 0.000000 0.000000
										CHANNELS 3 Xrotation Yrotation Zrotation
										JOINT mixamorig:LeftHandMiddle3
										{
											OFFSET 2.949997 0.000000 0.000000
											CHANNELS 3 Xrotation Yrotation Zrotation
											JOINT mixamorig:LeftHandMiddle4
											{
												OFFSET 2.952896 0.000000 0.000000
												CHANNELS 3 Xrotation Yrotation Zrotation
												End Site
												{
													OFFSET 2.952904 0.000000 0.000165
												}
											}
										}
									}
								}
								JOINT mixamorig:LeftHandRing1
								{
									OFFSET 9.104500 -0.042999 -1.865101
									CHANNELS 6 Xposition Yposition Zposition Xrotation Yrotation Zrotation
									JOINT mixamorig:LeftHandRing2
									{
										OFFSET 3.149994 0.000000 0.000000
										CHANNELS 3 Xrotation Yrotation Zrotation
										JOINT mixamorig:LeftHandRing3
										{
											OFFSET 2.950005 0.000000 0.000000
											CHANNELS 3 Xrotation Yrotation Zrotation
											JOINT mixamorig:LeftHandRing4
											{
												OFFSET 2.644302 0.000000 0.000000
												CHANNELS 3 Xrotation Yrotation Zrotation
												End Site
												{
													OFFSET 2.644302 0.000000 0.000083
												}
											}
										}
									}
								}
								JOINT mixamorig:LeftHandPinky1
								{
									OFFSET 8.077805 -0.486893 -3.806302
									CHANNELS 6 Xposition Yposition Zposition Xrotation Yrotation Zrotation
									JOINT mixamorig:LeftHandPinky2
									{
										OFFSET 3.600006 0.000000 0.000000
										CHANNELS 3 Xrotation Yrotation Zrotation
										JOINT mixamorig:LeftHandPinky3
										{
											OFFSET 2.099998 0.000000 0.000000
											CHANNELS 3 Xrotation Yrotation Zrotation
											JOINT mixamorig:LeftHandPinky4
											{
												OFFSET 2.125496 0.000000 0.000000
												CHANNELS 3 Xrotation Yrotation Zrotation
												End Site
												{
													OFFSET 2.125504 0.000000 -0.001254
												}
											}
										}
									}
								}
							}
						}
					}
				}
			}
		}
	}
	JOINT mixamorig:RightUpLeg
	{
		OFFSET -8.207800 -6.751701 -1.599544
		CHANNELS 6 Xposition Yposition Zposition Xrotation Yrotation Zrotation
		JOINT mixamorig:RightLeg
		{
			OFFSET 0.000004 -44.370152 0.345934
			CHANNELS 3 Xrotation Yrotation Zrotation
			JOINT mixamorig:RightFoot
			{
				OFFSET 0.000004 -44.423664 -3.043535
				CHANNELS 3 Xrotation Yrotation Zrotation
				JOINT mixamorig:RightToeBase
				{
					OFFSET 0.000001 -8.728691 10.710592
					CHANNELS 3 Xrotation Yrotation Zrotation
					JOINT mixamorig:RightToe_End
					{
						OFFSET 0.000000 -0.000665 9.278101
						CHANNELS 3 Xrotation Yrotation Zrotation
						End Site
						{
							OFFSET 0.000000 -0.000665 9.278103
						}
					}
				}
			}
		}
	}
	JOINT mixamorig:LeftUpLeg
	{
		OFFSET 8.207800 -6.751701 -1.599544
		CHANNELS 6 Xposition Yposition Zposition Xrotation Yrotation Zrotation
		JOINT mixamorig:LeftLeg
		{
			OFFSET 0.000004 -44.370037 0.346940
			CHANNELS 3 Xrotation Yrotation Zrotation
			JOINT mixamorig:LeftFoot
			{
				OFFSET 0.000004 -44.423611 -3.044388
				CHANNELS 3 Xrotation Yrotation Zrotation
				JOINT mixamorig:LeftToeBase
				{
					OFFSET 0.000001 -8.728690 10.710592
					CHANNELS 3 Xrotation Yrotation Zrotation
					JOINT mixamorig:LeftToe_End
					{
						OFFSET 0.000000 -0.000680 9.278101
						CHANNELS 3 Xrotation Yrotation Zrotation
						End Site
						{
							OFFSET 0.000000 -0.000680 9.278101
						}
					}
				}
			}
		}
	}
}
MOTION
Frames: 4
Frame Time: 0.033333
8.073954 150.580765 -1.726257 68.304979 10.208506 -6.738880 -0.000001 10.181533 0.131542 17.915537 -4.290703 -1.150421 -0.655672 -0.882466 1.816869 -0.631703 -0.816629 1.860063 0.000001 16.740349 -2.049043 -13.327619 -0.984954 -6.950101 0.000005 9.617847 1.684995 -41.067124 -17.087834 10.310282 -0.000002 22.037399 7.501065 -0.000001 -0.000000 -0.000000 -4.570001 11.014859 -2.160860 0.651620 5.334472 5.841404 -10.000257 50.548403 25.987092 0.000346 99.786400 -0.000275 34.150717 -20.544550 12.932646 -2.464790 -1.573971 2.681912 -1.257530 0.666059 0.529800 -5.462571 -10.016532 -1.921166 -2.646261 -1.527829 1.527816 -3.586706 6.164834 -7.759856 -1.994574 -1.151586 1.151568 0.000003 -0.000001 -0.000000 -9.108295 -0.517866 2.259809 -0.002842 1.597078 0.198874 0.012988 -0.425347 3.492403 0.012947 -0.425247 3.491637 -0.000003 -0.000006 0.000000 -9.532501 0.000033 -0.000003 0.000301 0.175726 -0.093201 0.032211 -0.669686 5.503998 0.062315 -0.909714 7.489717 0.000000 0.000002 -0.000001 -9.103601 -0.043093 -1.865104 0.039777 -1.024478 2.594792 0.040699 -0.752913 6.190421 0.035610 -0.997963 8.175125 0.000001 -0.000001 -0.000000 -8.076693 -0.486686 -3.806299 0.158179 -1.771459 6.528620 0.003763 -0.228945 1.879013 0.003745 -0.228776 1.877554 -0.000003 0.000000 -0.000000 4.570402 11.014671 -2.160842 0.632447 -5.256194 -6.889299 6.205722 -44.707010 -11.489567 -0.000079 -98.584942 -0.000098 39.421444 0.047478 11.527226 2.466100 -1.576199 2.681699 -6.256701 5.698560 7.394686 5.771030 14.502769 -0.848869 2.647880 -1.528767 1.528759 -4.017595 -7.143291 3.675334 1.998929 -1.154078 1.154085 0.000001 -0.000003 -0.000002 9.109299 -0.518020 2.259885 0.393290 2.982458 -9.095821 0.059091 0.902125 -7.497132 0.059076 0.901977 -7.496036 -0.000000 -0.000000 -0.000000 9.533394 0.000009 -0.000004 0.090338 1.663695 -3.479579 0.084461 1.077455 -8.965714 0.125538 1.311519 -10.935707 0.000003 -0.000000 0.000001 9.104500 -0.043003 -1.865116 0.018110 0.841807 -12.592060 0.103978 1.194696 -9.950976 0.149491 1.429907 -11.937174 0.000003 -0.000001 -0.000000 8.077796 -0.486896 -3.806307 0.952103 5.229382 -11.690322 0.034993 -3.259190 -7.114182 0.045907 0.795492 -6.606754 0.000003 -0.000004 -0.000001 -8.207804 -6.751712 -1.599540 -25.500064 -16.831919 -22.131742 78.278339 9.413993 8.423475 -8.777252 2.587520 19.133964 0.201363 -0.000002 0.000005 -0.000000 0.000001 -0.000001 8.207799 -6.751706 -1.599540 -26.638766 23.147176 29.797110 87.697191 -5.646140 -6.943506 0.998513 0.478249 -10.182111 3.607974 -0.000001 0.000019 -0.000003 -0.000000 0.000000 
8.200577 150.896378 -1.029068 68.667081 9.867007 -6.691511 0.000002 10.181554 0.131522 18.021732 -4.574980 -1.322814 -0.640616 -0.940408 1.808902 -0.614602 -0.874493 1.855102 -0.000001 16.740374 -2.049014 -16.175240 -0.916990 -6.637669 0.000002 9.617852 1.684986 -39.291551 -16.612661 10.932678 0.000002 22.037369 7.501087 -0.000002 0.000000 -0.000000 -4.569998 11.014858 -2.160841 0.659988 4.692672 3.086469 -16.163778 52.825619 23.707467 0.000161 111.133072 -0.000114 43.333589 -24.215225 16.791668 -2.464782 -1.573981 2.681905 -1.257530 0.666062 0.529799 -5.462568 -10.016533 -1.921166 -2.646253 -1.527810 1.527810 -3.586708 6.164833 -7.759859 -1.994599 -1.151583 1.151576 0.000003 -0.000001 0.000003 -9.108286 -0.517891 2.259802 -0.002831 1.597070 0.198862 0.012970 -0.425329 3.492413 0.012964 -0.425259 3.491636 -0.000000 -0.000003 -0.000001 -9.532481 0.000002 0.000008 0.000319 0.175750 -0.093210 0.032191 -0.669694 5.504002 0.062318 -0.909722 7.489718 0.000001 -0.000000 -0.000001 -9.103599 -0.043102 -1.865098 0.039783 -1.024478 2.594768 0.040722 -0.752896 6.190423 0.035592 -0.997969 8.175133 -0.000001 0.000002 0.000002 -8.076681 -0.486713 -3.806294 0.158176 -1.771459 6.528618 0.003758 -0.228954 1.879001 0.003754 -0.228784 1.877556 -0.000000 -0.000002 0.000001 4.570403 11.014679 -2.160830 0.704057 -5.751478 -3.935811 0.915319 -47.096429 -7.361205 -0.000059 -106.925689 -0.000066 44.220714 2.032802 14.860492 2.466103 -1.576200 2.681702 -6.256705 5.698563 7.394682 5.771029 14.502766 -0.848868 2.647890 -1.528730 1.528774 -4.017591 -7.143289 3.675329 1.998920 -1.154086 1.154066 -0.000004 -0.000001 0.000002 9.109308 -0.518007 2.259895 0.393284 2.982457 -9.095822 0.059108 0.902117 -7.497127 0.059081 0.901974 -7.496034 -0.000003 0.000000 -0.000003 9.533403 0.000006 0.000000 0.090335 1.663697 -3.479581 0.084456 1.077465 -8.965709 0.125539 1.311522 -10.935707 -0.000002 -0.000001 -0.000000 9.104507 -0.042997 -1.865107 0.018104 0.841811 -12.592060 0.103996 1.194722 -9.950973 0.149490 1.429905 -11.937175 0.000001 -0.000001 0.000001 8.077806 -0.486884 -3.806300 0.952100 5.229382 -11.690323 0.034995 -3.259198 -7.114185 0.045911 0.795491 -6.606752 0.000001 -0.000001 -0.000001 -8.207798 -6.751704 -1.599544 -27.037881 -16.801099 -22.977168 74.463221 9.397814 8.549297 -10.063649 0.085679 17.729387 0.297164 -0.000005 0.000002 0.000000 -0.000000 -0.000001 8.207800 -6.751714 -1.599534 -27.866214 23.537621 30.321863 82.941917 -2.439722 -8.211775 -1.186680 0.628827 -9.803787 3.829261 0.000021 -0.000015 0.000002 -0.000003 -0.000002 
8.331701 151.156143 -0.214691 69.357914 9.512370 -6.699397 -0.000002 10.181540 0.131528 17.855808 -4.827769 -1.590818 -0.576637 -0.990980 1.870188 -0.547962 -0.923184 1.917810 -0.000002 16.740370 -2.048990 -18.846188 -0.867638 -6.426550 0.000005 9.617845 1.684988 -37.863813 -16.229218 11.543349 0.000001 22.037369 7.501082 0.000001 0.000000 -0.000000 -4.570002 11.014868 -2.160824 0.595292 3.541956 0.865255 -26.825416 53.823608 23.614273 0.000127 119.987613 -0.000066 51.186742 -26.156575 22.940801 -2.464791 -1.573981 2.681918 -1.257530 0.666061 0.529803 -5.462571 -10.016535 -1.921164 -2.646276 -1.527830 1.527815 -3.586704 6.164831 -7.759856 -1.994578 -1.151586 1.151577 0.000002 -0.000004 -0.000002 -9.108294 -0.517895 2.259811 -0.002821 1.597081 0.198862 0.012965 -0.425341 3.492413 0.012971 -0.425253 3.491642 -0.000001 -0.000003 -0.000001 -9.532501 -0.000019 0.000004 0.000302 0.175732 -0.093208 0.032184 -0.669710 5.504004 0.062318 -0.909707 7.489726 0.000004 -0.000001 0.000001 -9.103588 -0.043109 -1.865095 0.039796 -1.024479 2.594785 0.040717 -0.752899 6.190426 0.035608 -0.997955 8.175128 -0.000004 -0.000004 0.000002 -8.076701 -0.486737 -3.806300 0.158183 -1.771454 6.528626 0.003746 -0.228952 1.879008 0.003750 -0.228770 1.877566 -0.000001 0.000000 -0.000001 4.570400 11.014681 -2.160787 0.748635 -5.593626 -1.141636 -9.120224 -49.603672 -5.655613 -0.000005 -112.510312 -0.000010 47.271377 4.204585 14.349690 2.466099 -1.576216 2.681701 -6.256701 5.698567 7.394687 5.771027 14.502773 -0.848863 2.647890 -1.528750 1.528761 -4.017599 -7.143281 3.675332 1.998933 -1.154084 1.154086 0.000002 0.000003 -0.000004 9.109304 -0.518007 2.259894 0.393285 2.982458 -9.095820 0.059098 0.902094 -7.497145 0.059077 0.901977 -7.496038 -0.000000 -0.000001 -0.000002 9.533403 0.000009 -0.000001 0.090337 1.663698 -3.479581 0.084464 1.077453 -8.965706 0.125543 1.311522 -10.935706 -0.000005 0.000000 -0.000000 9.104498 -0.042986 -1.865104 0.018107 0.841810 -12.592059 0.103987 1.194704 -9.950968 0.149492 1.429908 -11.937176 0.000003 -0.000001 0.000001 8.077795 -0.486897 -3.806301 0.952102 5.229385 -11.690325 0.034995 -3.259179 -7.114165 0.045910 0.795496 -6.606754 -0.000003 0.000001 -0.000001 -8.207804 -6.751705 -1.599543 -27.913195 -16.691107 -23.816327 69.891133 8.810573 8.475920 -11.067271 -2.415092 16.187239 0.104765 -0.000005 -0.000007 0.000000 -0.000000 0.000001 8.207802 -6.751700 -1.599537 -28.355296 23.468860 30.899677 77.514854 0.988871 -9.463758 -3.450918 0.792185 -9.625945 5.023380 -0.000013 0.000015 -0.000000 -0.000001 -0.000000 
8.474119 151.314789 0.705536 70.347540 9.182731 -6.789685 -0.000001 10.181559 0.131543 17.442584 -4.997998 -1.815616 -0.472407 -1.031158 2.025371 -0.440500 -0.958728 2.072656 0.000001 16.740370 -2.049038 -21.180750 -0.760654 -6.562614 0.000004 9.617843 1.684990 -36.922497 -15.966698 11.970789 0.000001 22.037384 7.501070 -0.000000 -0.000000 0.000000 -4.570000 11.014882 -2.160870 0.441454 1.766865 -1.036046 -41.280622 53.209011 25.820985 0.000157 124.737819 -0.000092 55.992846 -27.049661 27.894194 -2.464812 -1.573981 2.681910 -1.257530 0.666062 0.529802 -5.462567 -10.016536 -1.921162 -2.646261 -1.527800 1.527811 -3.586707 6.164834 -7.759854 -1.994583 -1.151597 1.151562 0.000007 -0.000000 -0.000000 -9.108294 -0.517888 2.259807 -0.002828 1.597061 0.198844 0.012967 -0.425343 3.492424 0.012958 -0.425260 3.491627 0.000000 -0.000003 0.000003 -9.532499 0.000016 -0.000003 0.000300 0.175720 -0.093208 0.032189 -0.669705 5.503988 0.062316 -0.909712 7.489742 -0.000003 0.000000 0.000003 -9.103607 -0.043105 -1.865098 0.039786 -1.024491 2.594768 0.040709 -0.752900 6.190416 0.035601 -0.997953 8.175121 0.000001 -0.000001 0.000000 -8.076698 -0.486694 -3.806291 0.158176 -1.771482 6.528614 0.003757 -0.228936 1.879003 0.003752 -0.228768 1.877550 -0.000002 0.000001 0.000002 4.570400 11.014675 -2.160850 0.724185 -4.693216 1.526307 -23.680476 -51.536895 -7.809947 0.000009 -114.956605 0.000000 49.036855 6.806062 9.619255 2.466094 -1.576201 2.681701 -6.256698 5.698563 7.394686 5.771032 14.502766 -0.848866 2.647894 -1.528756 1.528751 -4.017592 -7.143289 3.675328 1.998917 -1.154093 1.154090 0.000005 0.000000 -0.000000 9.109299 -0.518006 2.259908 0.393286 2.982458 -9.095821 0.059097 0.902118 -7.497135 0.059078 0.901977 -7.496036 -0.000002 0.000002 0.000003 9.533393 0.000008 0.000001 0.090337 1.663700 -3.479579 0.084466 1.077448 -8.965721 0.125538 1.311519 -10.935709 0.000001 0.000000 -0.000000 9.104502 -0.042998 -1.865101 0.018108 0.841809 -12.592060 0.104000 1.194699 -9.950970 0.149491 1.429907 -11.937173 0.000003 -0.000000 0.000001 8.077808 -0.486895 -3.806297 0.952101 5.229385 -11.690321 0.034994 -3.259179 -7.114179 0.045908 0.795493 -6.606751 0.000003 -0.000000 -0.000002 -8.207806 -6.751688 -1.599532 -28.097177 -16.465725 -24.687070 64.800498 5.238417 8.142333 -11.331305 -2.280168 15.200984 -0.196934 -0.000003 -0.000010 0.000000 -0.000001 -0.000001 8.207798 -6.751683 -1.599520 -28.191466 22.842202 31.252514 71.566934 4.914423 -9.933861 -4.774228 0.883645 -9.446439 5.575060 0.000012 -0.000007 -0.000002 0.000002 -0.000001 
